<?xml version="1.0" encoding="UTF-8"?>
<svg version="1.1" xmlns="http://www.w3.org/2000/svg" width="601" height="841">
<path d="M0 0 C10.16888405 6.59451569 20.07714491 13.58075916 29.9375 20.625 C30.71512695 21.17833008 31.49275391 21.73166016 32.29394531 22.30175781 C34.57422328 23.92584068 36.85061977 25.55516969 39.125 27.1875 C39.85299805 27.70892578 40.58099609 28.23035156 41.33105469 28.76757812 C45.18760438 31.5539138 48.95766215 34.41471661 52.6640625 37.3984375 C53.43339111 38.01130615 54.20271973 38.6241748 54.99536133 39.25561523 C56.46642118 40.43453391 57.92534747 41.62880254 59.36987305 42.84008789 C60.02769775 43.36594482 60.68552246 43.89180176 61.36328125 44.43359375 C61.93473877 44.90595459 62.50619629 45.37831543 63.0949707 45.86499023 C64.9995315 46.86750833 64.9995315 46.86750833 67.34375 45.99291992 C70.13447195 44.5211188 72.50901416 42.85057037 75.01171875 40.9296875 C80.68849269 36.71981701 86.57097611 33.16856948 92.75 29.75 C94.37905273 28.84664917 94.37905273 28.84664917 96.04101562 27.92504883 C167.56652016 -11.21714814 250.78112602 -19.09103771 328.85253906 3.46728516 C382.11163928 19.31969969 434.75742985 52.02113796 469.66796875 95.796875 C471.97153323 98.66740974 474.35579548 101.45485214 476.75 104.25 C487.70043035 117.42102846 496.664973 131.65771181 504.9375 146.625 C505.36272949 147.37974609 505.78795898 148.13449219 506.22607422 148.91210938 C544.21000034 216.49750349 551.21148764 299.08937076 530.77734375 373.26171875 C515.1127555 428.24745326 482.92134349 480.63241558 438.9375 517.625 C438.39480469 518.08148926 437.85210937 518.53797852 437.29296875 519.00830078 C391.41772881 557.40548367 335.66231712 582.89492136 275.9375 589.625 C274.71341431 589.76639404 274.71341431 589.76639404 273.46459961 589.91064453 C263.08971631 590.94342162 252.66568348 590.86870441 242.25 590.875 C240.74475769 590.87601212 240.74475769 590.87601212 239.20910645 590.87704468 C223.89964207 590.86070603 209.04297596 590.31818366 193.9375 587.625 C192.92993652 587.45339355 191.92237305 587.28178711 190.88427734 587.10498047 C133.221793 577.11514923 81.05670842 551.04271011 37.9375 511.625 C36.9784375 510.77035156 36.019375 509.91570313 35.03125 509.03515625 C8.15034688 484.99139125 -13.75821123 454.28082699 -29.08398438 421.70166016 C-29.75710697 420.27312203 -30.4385868 418.84850153 -31.12695312 417.42724609 C-44.15961992 390.47123201 -51.99687007 361.8049048 -56.375 332.25 C-56.53460205 331.18273682 -56.6942041 330.11547363 -56.85864258 329.01586914 C-59.48552498 309.84441428 -59.21585121 290.42462324 -59.22363281 271.1171875 C-59.22774614 268.40467651 -59.23327906 265.69216873 -59.23867798 262.97966003 C-59.25211569 255.67242207 -59.25826029 248.36518968 -59.26268864 241.05794144 C-59.26547073 236.48539365 -59.26971092 231.91284791 -59.27419281 227.34030151 C-59.28635645 214.64525995 -59.29666785 201.95021999 -59.3000679 189.25517273 C-59.30028747 188.44686557 -59.30050703 187.63855842 -59.30073325 186.80575711 C-59.30095153 185.99572403 -59.30116981 185.18569095 -59.3013947 184.35111141 C-59.30183814 182.71014849 -59.30228471 181.06918557 -59.30273438 179.42822266 C-59.3029558 178.61428012 -59.30317723 177.80033758 -59.30340537 176.96173012 C-59.30736203 163.74380319 -59.32485543 150.52593108 -59.3480939 137.30802536 C-59.37183554 123.69294267 -59.38427069 110.07788753 -59.38543582 96.46278381 C-59.38634993 88.83573396 -59.39203724 81.20875602 -59.41025543 73.58172607 C-59.42569311 67.09703107 -59.43075455 60.61243032 -59.42251733 54.12772042 C-59.41862648 50.8248289 -59.42111609 47.52216557 -59.43357468 44.21928978 C-59.44632028 40.62918595 -59.44040305 37.03956387 -59.42999268 33.44946289 C-59.43804908 32.4202667 -59.44610548 31.39107052 -59.45440602 30.33068657 C-59.38128425 19.49576827 -57.67854825 9.6757542 -50.0625 1.625 C-49.49789062 0.99722656 -48.93328125 0.36945312 -48.3515625 -0.27734375 C-33.98209748 -14.61649345 -15.17750021 -9.63381837 0 0 Z M322.38793945 180.83398438 C321.06678196 182.15598983 319.74496007 183.47733159 318.42253113 184.79806519 C314.86283088 188.35691067 311.31240567 191.92487709 307.7636683 195.49464989 C304.04286608 199.23430602 300.31346989 202.96537237 296.58500671 206.6973877 C289.5386346 213.75305478 282.49993978 220.81632873 275.46402282 227.88242006 C267.44812395 235.9319425 259.42362475 243.97286811 251.39841902 252.01311016 C234.90191039 268.54091007 218.4161426 285.07938849 201.9375 301.625 C198.09585575 299.83656265 195.69572876 297.59454542 192.71679688 294.55200195 C192.20879547 294.03626114 191.70079407 293.52052032 191.17739868 292.989151 C190.07638452 291.87051081 188.97759301 290.74967957 187.88078308 289.62691689 C186.13555424 287.84211623 184.38277841 286.06506277 182.62756348 284.29008484 C177.63824262 279.24290091 172.65840554 274.18652846 167.69433594 269.11450195 C164.65325325 266.00838413 161.59960625 262.91507645 158.5381012 259.82909203 C157.38211348 258.65898415 156.23079079 257.48424596 155.08457947 256.30455971 C141.75287748 242.58937071 127.38838182 234.11785257 107.828125 233.59375 C93.97702873 233.70500379 81.97268319 238.34331741 70.9375 246.625 C69.71353516 247.53572266 69.71353516 247.53572266 68.46484375 248.46484375 C58.12729487 257.30049217 50.97544917 271.29271783 49.73217773 284.86669922 C49.63456873 287.22778861 49.60825966 289.57448122 49.625 291.9375 C49.63063965 292.77418213 49.6362793 293.61086426 49.64208984 294.47290039 C49.76818524 300.91437752 50.5025945 306.61208452 52.9375 312.625 C53.31648438 313.57246094 53.69546875 314.51992188 54.0859375 315.49609375 C59.61264208 327.77943428 69.15915638 336.98982009 78.5 346.4375 C79.55453369 347.50629395 79.55453369 347.50629395 80.63037109 348.59667969 C81.2898877 349.2518457 81.9494043 349.90701172 82.62890625 350.58203125 C83.21873291 351.16960205 83.80855957 351.75717285 84.41625977 352.36254883 C85.86453272 353.83787201 85.86453272 353.83787201 87.9375 353.625 C88.2675 354.615 88.5975 355.605 88.9375 356.625 C90.56192968 358.27354633 90.56192968 358.27354633 92.5630188 359.87864685 C96.5535454 363.26698417 100.26008771 366.83624332 103.92919922 370.56665039 C104.90172134 371.54859123 104.90172134 371.54859123 105.89389038 372.55036926 C107.28732451 373.9575438 108.67966964 375.36579739 110.07101059 376.77504158 C112.2803829 379.01131674 114.49432905 381.2429664 116.70974731 383.47325134 C123.00371136 389.80970596 129.2949398 396.14879392 135.56982422 402.50415039 C139.42176329 406.40481777 143.28357487 410.29547434 147.15185928 414.17992973 C148.61543231 415.65334544 150.07535677 417.13039536 151.53139877 418.61125374 C165.62364224 432.93839042 179.76159726 443.15672016 200.5625 444 C227.17131663 443.48565432 243.60475344 426.26057989 261.23144531 408.62158203 C262.95528313 406.90373747 264.67952734 405.18630064 266.40414429 403.46923828 C270.57932945 399.30981231 274.74979432 395.14569267 278.91766599 390.97894134 C282.30789439 387.58966795 285.69970703 384.20198803 289.09261322 380.81539536 C298.73613663 371.18944899 308.37549373 361.55935844 318.00948039 351.92386724 C318.52713311 351.40613461 319.04478583 350.88840197 319.578125 350.35498047 C320.09641651 349.8366072 320.61470802 349.31823393 321.14870533 348.78415237 C329.55455289 340.37749132 337.97034386 331.98086313 346.39067283 323.58870937 C355.06019016 314.9479703 363.72217634 306.29974367 372.37645411 297.64374053 C377.22597344 292.79355937 382.07847813 287.94645756 386.93912506 283.10742569 C391.50881472 278.55792974 396.06798114 273.99805748 400.62031937 269.43119812 C402.28772822 267.76170394 403.95852672 266.09558691 405.63302994 264.43320847 C415.5463386 254.5870222 424.5613162 245.46849716 429.8125 232.25 C430.39644531 230.81527344 430.39644531 230.81527344 430.9921875 229.3515625 C435.94680631 215.06096774 433.71393496 198.16707243 427.6171875 184.7109375 C420.52143027 170.63574692 408.80859937 160.79673265 393.9375 155.625 C363.60870971 147.83153376 343.12107521 159.91191878 322.38793945 180.83398438 Z " fill="#000000" transform="translate(59.0625,9.375)"/>
<path d="M0 0 C3.5187794 1.98689699 5.69792092 4.09376277 7 8 C7.10500323 10.82756547 7.15410533 13.63149609 7.15771484 16.45947266 C7.16279556 17.32327545 7.16787628 18.18707825 7.17311096 19.07705688 C7.18381574 20.95460622 7.1924355 22.83216832 7.19923019 24.70973587 C7.21102662 27.68655279 7.23048359 30.66322512 7.25234985 33.63998413 C7.31392581 42.10450386 7.36791953 50.56901014 7.40136719 59.03369141 C7.42237734 64.21144471 7.45773597 69.38893645 7.50212479 74.56653976 C7.51623961 76.53515914 7.52499697 78.50382482 7.52817917 80.47249222 C7.53311832 83.23665739 7.55635474 86.00013585 7.58349609 88.76416016 C7.58048996 89.56865601 7.57748383 90.37315186 7.5743866 91.20202637 C7.70600062 100.28213932 10.45219158 108.53667943 17 115 C25.11477205 120.5901763 32.22755161 121.78001298 42 121 C49.02848286 119.39071979 54.86045791 115.98277103 59 110 C62.84366961 103.19196992 63.56673816 97.34230215 63.50390625 89.61328125 C63.51332748 88.55263962 63.52274872 87.49199799 63.53245544 86.3992157 C63.56094688 83.036777 63.56418863 79.67504925 63.5625 76.3125 C63.56611281 72.93934383 63.57567438 69.56669878 63.60325623 66.19364929 C63.61999071 64.10241653 63.62296293 62.01101507 63.61024475 59.91975403 C63.65566831 53.64070227 64.15221807 48.84778193 68.8125 44.1875 C71.66502872 42.63898441 73.74630304 42.13014788 77 42 C81.86476212 43.68777461 85.53982992 46.44089004 88 51 C88.70629317 54.66895293 88.65408747 58.26168283 88.59375 61.98828125 C88.59379028 63.0460527 88.59383057 64.10382416 88.59387207 65.19364929 C88.58852213 67.42693026 88.57096213 69.66021108 88.54199219 71.89331055 C88.50026656 75.29079549 88.50091712 78.68628717 88.5078125 82.08398438 C88.49731429 84.2604303 88.4843728 86.43686608 88.46875 88.61328125 C88.46854858 89.61982254 88.46834717 90.62636383 88.46813965 91.66340637 C88.36358411 97.97786578 87.32819089 103.13965516 85 109 C84.69578125 109.9075 84.3915625 110.815 84.078125 111.75 C79.70543526 123.63051551 70.35805199 134.28139891 59 140 C45.26297035 145.81182024 31.23494626 147.06343726 17 142 C9.38765026 138.68444469 2.61995158 134.1611321 -3 128 C-3 127.34 -3 126.68 -3 126 C-3.46148437 126.42410156 -3.92296875 126.84820313 -4.3984375 127.28515625 C-17.40248418 138.97851838 -29.58261167 145.39592785 -47.3046875 145.2109375 C-61.24157147 144.41538598 -73.57082742 138.25811083 -83 128 C-91.18789699 117.71413653 -94.7737117 107.79756707 -95.9375 94.875 C-96.79481757 85.59540229 -98.85155825 78.74653194 -105.6875 72.0625 C-111.44708591 67.46350862 -118.57637902 65.34126933 -125.94140625 65.7265625 C-134.94002953 66.92182555 -140.94774363 70.16959638 -147 77 C-151.45155094 82.91490609 -152.22515284 89.73882089 -152 97 C-150.76494157 105.24163988 -147.24589082 111.80019822 -140.57421875 116.828125 C-133.48256872 121.02622488 -127.34207674 121.54587669 -119.31933594 121.04296875 C-114.36930465 120.76397095 -111.32391502 121.23531494 -107 124 C-104.02341693 127.47268024 -103.44620312 130.62485991 -103.6640625 135.07421875 C-104.2467799 138.41468015 -105.43663923 139.8117652 -108 142 C-116.52701161 146.64768984 -127.44373362 146.10397797 -136.625 143.875 C-150.50131379 139.48763608 -160.6523867 132.45076096 -168.39453125 120.1015625 C-173.06829169 111.07244866 -174.65986833 103.84294669 -174.5625 93.625 C-174.58634766 92.48289062 -174.61019531 91.34078125 -174.63476562 90.1640625 C-174.61127186 76.38105467 -169.07389238 66.36410335 -159.71484375 56.62109375 C-149.21308933 46.51877215 -136.46989452 42.17798148 -122 42 C-106.98814836 43.04869339 -95.08550715 49.4484207 -84.8125 60.1875 C-76.9945881 69.33180414 -73.27833514 79.49686445 -72.625 91.3125 C-72.04227777 99.83604725 -69.96508145 108.18934837 -63.87109375 114.49609375 C-56.78576012 120.19098613 -49.34605521 121.83256517 -40.375 121.48828125 C-32.99371406 120.42038687 -26.59874658 116.91267417 -22 111 C-15.18234628 101.80141656 -16.32236501 91.210423 -16.3984375 80.328125 C-16.39293077 78.31653995 -16.38480026 76.30496053 -16.37417603 74.293396 C-16.35138081 69.02178031 -16.35547826 63.75058086 -16.36798096 58.47894287 C-16.38635006 50.02867598 -16.37630683 41.57864996 -16.34212112 33.12844086 C-16.33602864 30.18466175 -16.34925792 27.24140635 -16.36410522 24.29766846 C-16.36115711 22.49043646 -16.35750236 20.68320543 -16.35302734 18.87597656 C-16.36696281 17.65552391 -16.36696281 17.65552391 -16.38117981 16.41041565 C-16.3387174 10.33974027 -15.02950855 6.20346642 -10.8125 1.625 C-7.16832227 -0.48052491 -4.05703151 -0.93501898 0 0 Z " fill="#000000" transform="translate(344,658)"/>
<path d="M0 0 C3.08193978 1.6281946 5.26420667 3.03009062 7.375 5.8125 C8.72789093 10.54761825 8.5517493 13.91693656 6.3125 18.3125 C3.81094957 21.21970726 2.72680887 22.23769819 -1 23 C-6.21719088 23 -8.0130355 22.88196828 -11.9375 19.375 C-14.21641897 15.64585986 -15 13.36120395 -15 9 C-12.12542611 2.13296238 -7.40758075 -1.03966046 0 0 Z " fill="#000000" transform="translate(388,818)"/>
</svg>
