<?xml version="1.0" encoding="UTF-8"?>
<svg version="1.1" xmlns="http://www.w3.org/2000/svg" width="601" height="841">
<path d="M0 0 C10.16888405 6.59451569 20.07714491 13.58075916 29.9375 20.625 C30.71512695 21.17833008 31.49275391 21.73166016 32.29394531 22.30175781 C34.57422328 23.92584068 36.85061977 25.55516969 39.125 27.1875 C39.85299805 27.70892578 40.58099609 28.23035156 41.33105469 28.76757812 C45.18760438 31.5539138 48.95766215 34.41471661 52.6640625 37.3984375 C53.43339111 38.01130615 54.20271973 38.6241748 54.99536133 39.25561523 C56.46642118 40.43453391 57.92534747 41.62880254 59.36987305 42.84008789 C60.02769775 43.36594482 60.68552246 43.89180176 61.36328125 44.43359375 C61.93473877 44.90595459 62.50619629 45.37831543 63.0949707 45.86499023 C64.9995315 46.86750833 64.9995315 46.86750833 67.34375 45.99291992 C70.13447195 44.5211188 72.50901416 42.85057037 75.01171875 40.9296875 C80.68849269 36.71981701 86.57097611 33.16856948 92.75 29.75 C94.37905273 28.84664917 94.37905273 28.84664917 96.04101562 27.92504883 C167.56652016 -11.21714814 250.78112602 -19.09103771 328.85253906 3.46728516 C382.11163928 19.31969969 434.75742985 52.02113796 469.66796875 95.796875 C471.97153323 98.66740974 474.35579548 101.45485214 476.75 104.25 C487.70043035 117.42102846 496.664973 131.65771181 504.9375 146.625 C505.36272949 147.37974609 505.78795898 148.13449219 506.22607422 148.91210938 C544.21000034 216.49750349 551.21148764 299.08937076 530.77734375 373.26171875 C515.1127555 428.24745326 482.92134349 480.63241558 438.9375 517.625 C438.39480469 518.08148926 437.85210937 518.53797852 437.29296875 519.00830078 C391.41772881 557.40548367 335.66231712 582.89492136 275.9375 589.625 C274.71341431 589.76639404 274.71341431 589.76639404 273.46459961 589.91064453 C263.08971631 590.94342162 252.66568348 590.86870441 242.25 590.875 C240.74475769 590.87601212 240.74475769 590.87601212 239.20910645 590.87704468 C223.89964207 590.86070603 209.04297596 590.31818366 193.9375 587.625 C192.92993652 587.45339355 191.92237305 587.28178711 190.88427734 587.10498047 C133.221793 577.11514923 81.05670842 551.04271011 37.9375 511.625 C36.9784375 510.77035156 36.019375 509.91570313 35.03125 509.03515625 C8.15034688 484.99139125 -13.75821123 454.28082699 -29.08398438 421.70166016 C-29.75710697 420.27312203 -30.4385868 418.84850153 -31.12695312 417.42724609 C-44.15961992 390.47123201 -51.99687007 361.8049048 -56.375 332.25 C-56.53460205 331.18273682 -56.6942041 330.11547363 -56.85864258 329.01586914 C-59.48552498 309.84441428 -59.21585121 290.42462324 -59.22363281 271.1171875 C-59.22774614 268.40467651 -59.23327906 265.69216873 -59.23867798 262.97966003 C-59.25211569 255.67242207 -59.25826029 248.36518968 -59.26268864 241.05794144 C-59.26547073 236.48539365 -59.26971092 231.91284791 -59.27419281 227.34030151 C-59.28635645 214.64525995 -59.29666785 201.95021999 -59.3000679 189.25517273 C-59.30028747 188.44686557 -59.30050703 187.63855842 -59.30073325 186.80575711 C-59.30095153 185.99572403 -59.30116981 185.18569095 -59.3013947 184.35111141 C-59.30183814 182.71014849 -59.30228471 181.06918557 -59.30273438 179.42822266 C-59.3029558 178.61428012 -59.30317723 177.80033758 -59.30340537 176.96173012 C-59.30736203 163.74380319 -59.32485543 150.52593108 -59.3480939 137.30802536 C-59.37183554 123.69294267 -59.38427069 110.07788753 -59.38543582 96.46278381 C-59.38634993 88.83573396 -59.39203724 81.20875602 -59.41025543 73.58172607 C-59.42569311 67.09703107 -59.43075455 60.61243032 -59.42251733 54.12772042 C-59.41862648 50.8248289 -59.42111609 47.52216557 -59.43357468 44.21928978 C-59.44632028 40.62918595 -59.44040305 37.03956387 -59.42999268 33.44946289 C-59.43804908 32.4202667 -59.44610548 31.39107052 -59.45440602 30.33068657 C-59.38128425 19.49576827 -57.67854825 9.6757542 -50.0625 1.625 C-49.49789062 0.99722656 -48.93328125 0.36945312 -48.3515625 -0.27734375 C-33.98209748 -14.61649345 -15.17750021 -9.63381837 0 0 Z M318.90039062 184.56445312 C317.62161305 185.84515401 316.34260455 187.12562435 315.06338501 188.40588379 C312.32943162 191.14297649 309.59703389 193.88160906 306.86585999 196.62147522 C302.54905288 200.95188368 298.22836305 205.27840432 293.90710449 209.60437012 C284.74759034 218.77494106 275.59234113 227.94976441 266.4375 237.125 C256.52486751 247.05966673 246.61149141 256.99358498 236.69325781 266.92266035 C232.39470618 271.22620098 228.09860554 275.53216918 223.80435085 279.83999729 C221.14211365 282.5096695 218.4778281 285.17729009 215.81296921 287.84434509 C214.57447301 289.08471998 213.33684482 290.32596224 212.10013199 291.56811523 C210.41770935 293.25770826 208.73227031 294.94423273 207.04602051 296.63000488 C206.55284411 297.12677624 206.05966771 297.6235476 205.55154657 298.13537264 C202.16568698 301.51090651 202.16568698 301.51090651 199.9375 302.625 C199.69978882 302.06262634 199.46207764 301.50025269 199.21716309 300.9208374 C197.64775019 298.10516126 195.74131944 296.17446181 193.46289062 293.89160156 C192.07003845 292.48929291 192.07003845 292.48929291 190.64904785 291.05865479 C189.6308679 290.0440579 188.61242852 289.0297213 187.59375 288.015625 C186.54410075 286.96462682 185.4947484 285.91333205 184.44567871 284.86175537 C182.24306673 282.6561951 180.03688109 280.45428954 177.828125 278.25488281 C175.02202338 275.46009123 172.22488493 272.65652997 169.43045807 269.85007095 C167.26170088 267.67401485 165.0881133 265.50283338 162.91313171 263.33300018 C161.88162654 262.30281384 160.85156207 261.27118254 159.82307434 260.2379837 C144.92699564 245.28873587 129.68255729 233.83073698 107.8125 233.1875 C91.09164839 233.8898664 76.90761937 239.93111415 64.9375 251.625 C52.31698314 266.16228478 48.93447322 281.41007534 49.7421875 300.12548828 C50.17603483 305.67764944 51.71589891 310.5530428 53.9375 315.625 C54.32679687 316.54023438 54.71609375 317.45546875 55.1171875 318.3984375 C62.91875091 334.50935838 79.6590102 347.53960213 92.12109375 360.046875 C93.08543158 361.01527464 94.04974162 361.98370195 95.01402473 362.95215607 C99.54192285 367.49899092 104.07215294 372.04348616 108.6053223 376.5850656 C113.79061195 381.78014385 118.9674844 386.98342704 124.1374802 392.19372439 C128.17068853 396.25726463 132.21170693 400.31293435 136.25846058 404.3629849 C138.65972094 406.76657209 141.05770487 409.1732059 143.44735527 411.58834076 C160.23531249 429.26530496 160.23531249 429.26530496 181.4375 440.625 C182.5615625 440.99625 183.685625 441.3675 184.84375 441.75 C199.9735843 446.02914506 215.59320068 443.9979882 229.625 437.0625 C242.70168371 429.14594618 253.41266884 416.30926011 264.16137695 405.578125 C265.86587398 403.8799063 267.5705555 402.18187275 269.27540588 400.48400879 C274.35030086 395.42817431 279.4210329 390.36817667 284.49087051 385.30727196 C286.40605518 383.39560929 288.32155063 381.48425821 290.23706061 379.57292151 C298.70051838 371.12789526 307.16263627 362.68152906 315.62073994 354.23114014 C317.68017436 352.17361498 319.73961438 350.11609542 321.79907227 348.05859375 C322.31081704 347.54733271 322.82256182 347.03607167 323.34981402 346.50931787 C331.65343011 338.21401553 339.96554134 329.92728005 348.28119753 321.64404917 C356.84671205 313.1116596 365.40462649 304.57170642 373.95519036 296.02433395 C378.74517914 291.23650299 383.53835825 286.45196765 388.34008217 281.67590332 C392.85267331 277.18662942 397.35560207 272.68788235 401.85141563 268.18180847 C403.49785345 266.5348763 405.14768849 264.89133189 406.80123901 263.25154114 C421.51150206 248.67821034 421.51150206 248.67821034 430.8125 230.375 C431.20179688 229.25609375 431.59109375 228.1371875 431.9921875 226.984375 C436.20683198 212.00671281 434.01795344 195.94873845 426.6015625 182.33984375 C417.22645895 167.04478045 404.31859226 157.92615862 386.9375 153.625 C357.12113356 147.9114577 338.32387883 165.05429068 318.90039062 184.56445312 Z " fill="#0CBC8D" transform="translate(59.0625,9.375)"/>
<path d="M0 0 C3.5187794 1.98689699 5.69792092 4.09376277 7 8 C7.10500323 10.82756547 7.15410533 13.63149609 7.15771484 16.45947266 C7.16279556 17.32327545 7.16787628 18.18707825 7.17311096 19.07705688 C7.18381574 20.95460622 7.1924355 22.83216832 7.19923019 24.70973587 C7.21102662 27.68655279 7.23048359 30.66322512 7.25234985 33.63998413 C7.31392581 42.10450386 7.36791953 50.56901014 7.40136719 59.03369141 C7.42237734 64.21144471 7.45773597 69.38893645 7.50212479 74.56653976 C7.51623961 76.53515914 7.52499697 78.50382482 7.52817917 80.47249222 C7.53311832 83.23665739 7.55635474 86.00013585 7.58349609 88.76416016 C7.58048996 89.56865601 7.57748383 90.37315186 7.5743866 91.20202637 C7.70600062 100.28213932 10.45219158 108.53667943 17 115 C25.11477205 120.5901763 32.22755161 121.78001298 42 121 C49.02848286 119.39071979 54.86045791 115.98277103 59 110 C62.84366961 103.19196992 63.56673816 97.34230215 63.50390625 89.61328125 C63.51332748 88.55263962 63.52274872 87.49199799 63.53245544 86.3992157 C63.56094688 83.036777 63.56418863 79.67504925 63.5625 76.3125 C63.56611281 72.93934383 63.57567438 69.56669878 63.60325623 66.19364929 C63.61999071 64.10241653 63.62296293 62.01101507 63.61024475 59.91975403 C63.65566831 53.64070227 64.15221807 48.84778193 68.8125 44.1875 C71.66502872 42.63898441 73.74630304 42.13014788 77 42 C81.86476212 43.68777461 85.53982992 46.44089004 88 51 C88.70629317 54.66895293 88.65408747 58.26168283 88.59375 61.98828125 C88.59379028 63.0460527 88.59383057 64.10382416 88.59387207 65.19364929 C88.58852213 67.42693026 88.57096213 69.66021108 88.54199219 71.89331055 C88.50026656 75.29079549 88.50091712 78.68628717 88.5078125 82.08398438 C88.49731429 84.2604303 88.4843728 86.43686608 88.46875 88.61328125 C88.46854858 89.61982254 88.46834717 90.62636383 88.46813965 91.66340637 C88.36358411 97.97786578 87.32819089 103.13965516 85 109 C84.69578125 109.9075 84.3915625 110.815 84.078125 111.75 C79.70543526 123.63051551 70.35805199 134.28139891 59 140 C45.26297035 145.81182024 31.23494626 147.06343726 17 142 C9.38765026 138.68444469 2.61995158 134.1611321 -3 128 C-3 127.34 -3 126.68 -3 126 C-3.46148437 126.42410156 -3.92296875 126.84820313 -4.3984375 127.28515625 C-17.40248418 138.97851838 -29.58261167 145.39592785 -47.3046875 145.2109375 C-61.24157147 144.41538598 -73.57082742 138.25811083 -83 128 C-91.18789699 117.71413653 -94.7737117 107.79756707 -95.9375 94.875 C-96.79481757 85.59540229 -98.85155825 78.74653194 -105.6875 72.0625 C-111.44708591 67.46350862 -118.57637902 65.34126933 -125.94140625 65.7265625 C-134.94002953 66.92182555 -140.94774363 70.16959638 -147 77 C-151.45155094 82.91490609 -152.22515284 89.73882089 -152 97 C-150.76494157 105.24163988 -147.24589082 111.80019822 -140.57421875 116.828125 C-133.48256872 121.02622488 -127.34207674 121.54587669 -119.31933594 121.04296875 C-114.36930465 120.76397095 -111.32391502 121.23531494 -107 124 C-104.02341693 127.47268024 -103.44620312 130.62485991 -103.6640625 135.07421875 C-104.2467799 138.41468015 -105.43663923 139.8117652 -108 142 C-116.52701161 146.64768984 -127.44373362 146.10397797 -136.625 143.875 C-150.50131379 139.48763608 -160.6523867 132.45076096 -168.39453125 120.1015625 C-173.06829169 111.07244866 -174.65986833 103.84294669 -174.5625 93.625 C-174.58634766 92.48289062 -174.61019531 91.34078125 -174.63476562 90.1640625 C-174.61127186 76.38105467 -169.07389238 66.36410335 -159.71484375 56.62109375 C-149.21308933 46.51877215 -136.46989452 42.17798148 -122 42 C-106.98814836 43.04869339 -95.08550715 49.4484207 -84.8125 60.1875 C-76.9945881 69.33180414 -73.27833514 79.49686445 -72.625 91.3125 C-72.04227777 99.83604725 -69.96508145 108.18934837 -63.87109375 114.49609375 C-56.78576012 120.19098613 -49.34605521 121.83256517 -40.375 121.48828125 C-32.99371406 120.42038687 -26.59874658 116.91267417 -22 111 C-15.18234628 101.80141656 -16.32236501 91.210423 -16.3984375 80.328125 C-16.39293077 78.31653995 -16.38480026 76.30496053 -16.37417603 74.293396 C-16.35138081 69.02178031 -16.35547826 63.75058086 -16.36798096 58.47894287 C-16.38635006 50.02867598 -16.37630683 41.57864996 -16.34212112 33.12844086 C-16.33602864 30.18466175 -16.34925792 27.24140635 -16.36410522 24.29766846 C-16.36115711 22.49043646 -16.35750236 20.68320543 -16.35302734 18.87597656 C-16.36696281 17.65552391 -16.36696281 17.65552391 -16.38117981 16.41041565 C-16.3387174 10.33974027 -15.02950855 6.20346642 -10.8125 1.625 C-7.16832227 -0.48052491 -4.05703151 -0.93501898 0 0 Z " fill="#0CBC8D" transform="translate(344,658)"/>
<path d="M0 0 C3.08193978 1.6281946 5.26420667 3.03009062 7.375 5.8125 C8.72789093 10.54761825 8.5517493 13.91693656 6.3125 18.3125 C3.81094957 21.21970726 2.72680887 22.23769819 -1 23 C-6.21719088 23 -8.0130355 22.88196828 -11.9375 19.375 C-14.21641897 15.64585986 -15 13.36120395 -15 9 C-12.12542611 2.13296238 -7.40758075 -1.03966046 0 0 Z " fill="#0CBC8D" transform="translate(388,818)"/>
</svg>
